<svg xmlns="http://www.w3.org/2000/svg" width="50" height="18.78" viewBox="0 0 38.252 14.369">
  <g id="Symbols" transform="translate(-10.874 -10.814)">
    <g id="MOLECULE_Header-A-Builder" data-name="MOLECULE/Header-A-Builder" transform="translate(-6 -14)">
      <g id="Logo-_-AppName" data-name="Logo-+-AppName" transform="translate(6 14)">
        <g id="Logo" transform="translate(10.874 10.815)">
          <path id="Path_440" data-name="Path 440" d="M31.427,2.841V5.832H37.4V8.491H31.427v3.036h6.826v2.658H28.445v-14h9.807V2.841ZM7.218,14.37a6.931,6.931,0,0,0,5.758-2.812L10.713,9.768A4.094,4.094,0,0,1,7.3,11.623a4.285,4.285,0,0,1-4.21-4.438A4.285,4.285,0,0,1,7.3,2.747,4.094,4.094,0,0,1,10.713,4.6l2.263-1.791A6.931,6.931,0,0,0,7.218,0,7.224,7.224,0,0,0,0,7.185,7.224,7.224,0,0,0,7.218,14.37ZM21.646.183h-3.1l5.45,14h3.121Zm1.017,10.788H17.436l-1.257,3.214H13.091l3.2-8.259Z" fill="#000" />
        </g>
      </g>
    </g>
  </g>
</svg>